#!OML:ASF F:\VICON\USERDATA\INSTALL\rory3\rory3.ASF
:FULLY-SPECIFIED
:DEGREES
303
root -4.98494 17.7314 6.43339 5.98436 -48.685 -6.93645
lowerback 9.73351 2.74709 5.99181
upperback 0.226443 4.38772 1.74001
thorax -4.90872 2.03163 -2.13314
lowerneck -21.3015 -5.29434 -9.68641
upperneck 23.7945 -5.96927 6.11031
head 11.8253 -2.81869 2.90021
rclavicle 5.24046e-014 2.38542e-015
rhumerus -30.3585 -5.99213 -79.7987
rradius 35.373
rwrist 4.60309
rhand -14.2629 11.1952
rfingers 7.12502
rthumb 11.8756 -18.448
lclavicle 5.24046e-014 2.38542e-015
lhumerus -38.7316 4.09126 84.1265
lradius 31.618
lwrist -9.7001
lhand -13.6942 26.7724
lfingers 7.12502
lthumb 12.4239 56.3832
rfemur 10.7859 1.29275 29.8096
rtibia 18.5443
rfoot -18.0435 -4.53449
rtoes -8.173
lfemur -23.993 -3.38276 -14.0467
ltibia 6.79686
lfoot -5.14553 11.5864
ltoes -10.4871
304
root -5.09675 17.7153 6.54805 5.70638 -48.6055 -6.84522
lowerback 9.98172 2.76007 5.85635
upperback 0.289016 4.40597 1.76117
thorax -4.99228 2.04174 -2.05147
lowerneck -21.4418 -5.37131 -9.61657
upperneck 23.8188 -6.05317 5.98765
head 11.8629 -2.86253 2.82607
rclavicle 2.48481e-015 -7.55382e-015
rhumerus -30.1772 -6.57765 -79.5876
rradius 35.2417
rwrist 4.9206
rhand -14.4531 11.0266
rfingers 7.12502
rthumb 11.6922 -18.6271
lclavicle 2.48481e-015 -7.55382e-015
lhumerus -38.6966 4.21454 84.1281
lradius 31.1861
lwrist -10.2747
lhand -14.2658 26.0805
lfingers 7.12502
lthumb 11.8728 55.7239
rfemur 11.6097 1.62785 29.8539
rtibia 18.5149
rfoot -17.7078 -4.81286
rtoes -8.87895
lfemur -24.0127 -3.33347 -14.2111
ltibia 7.59641
lfoot -4.88033 11.2787
ltoes -11.1295
305
root -5.21198 17.702 6.66786 5.43261 -48.6364 -6.83049
lowerback 10.2172 2.81823 5.79656
upperback 0.374946 4.4891 1.77219
thorax -5.03293 2.08353 -2.02911
lowerneck -21.3928 -5.44286 -9.64155
upperneck 23.6924 -6.15555 6.02856
head 11.8166 -2.90486 2.82691
rclavicle 6.3785e-014 0
rhumerus -30.0634 -7.17055 -79.3866
rradius 35.1822
rwrist 5.30659
rhand -14.3759 11.5845
rfingers 7.12502
rthumb 11.7667 -18.065
lclavicle 6.3785e-014 0
lhumerus -38.6082 4.36198 84.0553
lradius 30.7725
lwrist -10.6855
lhand -14.5548 25.4027
lfingers 7.12502
lthumb 11.5941 55.0619
rfemur 12.4444 2.00334 29.9201
rtibia 18.6369
rfoot -17.4789 -4.94118
rtoes -8.79486
lfemur -23.8338 -3.18126 -14.3553
ltibia 8.33926
lfoot -4.73329 10.5934
ltoes -12.0915
306
root -5.33152 17.6894 6.79765 4.98567 -48.7465 -6.54624
lowerback 10.2904 2.89358 5.60495
upperback 0.480109 4.56415 1.72758
thorax -4.96835 2.12821 -1.98029
lowerneck -21.4008 -5.5268 -9.81867
upperneck 23.6711 -6.25787 6.19032
head 11.8324 -2.94566 2.89917
rclavicle -1.00038e-013 1.19271e-015
rhumerus -30.0771 -7.49265 -79.2189
rradius 35.2976
rwrist 5.41083
rhand -14.2136 12.1294
rfingers 7.12502
rthumb 11.9231 -17.5111
lclavicle -1.00038e-013 1.19271e-015
lhumerus -38.5208 4.54147 83.9863
lradius 30.4249
lwrist -10.8447
lhand -14.5762 25.3043
lfingers 7.12502
lthumb 11.5735 54.9647
rfemur 13.1832 2.34347 29.7591
rtibia 18.9181
rfoot -17.203 -5.06958
rtoes -9.32998
lfemur -23.453 -2.9896 -14.7435
ltibia 8.92429
lfoot -4.82234 9.47373
ltoes -11.5058
307
root -5.45321 17.68 6.93405 4.61062 -48.9241 -6.19808
lowerback 10.1746 2.95663 5.41642
upperback 0.637375 4.6026 1.58711
thorax -4.73788 2.1602 -2.01402
lowerneck -21.7272 -5.57348 -9.59385
upperneck 23.6817 -6.35466 6.14719
head 11.8983 -2.96666 2.82452
rclavicle 1.91082e-014 -2.22639e-014
rhumerus -29.9117 -7.72193 -79.3406
rradius 35.4222
rwrist 4.97727
rhand -14.0796 11.6963
rfingers 7.12502
rthumb 12.0523 -17.9366
lclavicle 1.91082e-014 -2.22639e-014
lhumerus -38.2472 4.78875 83.7421
lradius 29.9978
lwrist -11.011
lhand -14.6589 25.1114
lfingers 7.12502
lthumb 11.4938 54.7763
rfemur 13.7096 2.71671 29.536
rtibia 19.3589
rfoot -16.7272 -5.23215
rtoes -10.662
lfemur -23.0508 -2.73937 -15.2152
ltibia 9.38134
lfoot -4.95724 7.98519
ltoes -11.4789
308
root -5.57539 17.6739 7.07717 4.43022 -49.1567 -6.0466
lowerback 9.99555 3.03181 5.40566
upperback 0.757855 4.67574 1.44625
thorax -4.49475 2.20527 -2.1473
lowerneck -21.8919 -5.54963 -9.28322
upperneck 23.5979 -6.39451 6.10351
head 11.8873 -2.9573 2.74656
rclavicle 6.21451e-014 -2.38542e-015
rhumerus -29.839 -8.01282 -79.4849
rradius 35.5447
rwrist 4.94824
rhand -14.0426 11.3126
rfingers 7.12502
rthumb 12.088 -18.3182
lclavicle 6.21451e-014 -2.38542e-015
lhumerus -37.9703 4.74781 83.5229
lradius 29.5661
lwrist -11.0296
lhand -14.6276 25.197
lfingers 7.12502
lthumb 11.5239 54.8602
rfemur 14.0918 2.87107 29.3078
rtibia 19.9716
rfoot -16.2731 -5.0215
rtoes -11.5216
lfemur -22.5899 -2.42506 -15.5741
ltibia 9.75179
lfoot -5.14418 6.2054
ltoes -11.5118
